<svg version="1.2" xmlns="http://www.w3.org/2000/svg" viewBox="-10 -12 50 50" width="52" height="52">
<style>.a{fill:#666d89}</style>
<style type="text/css">svg:hover{cursor:pointer;}</style>
<path fill-rule="evenodd" class="a" d="m16.5 5.5c0 0.3-0.2 0.5-0.5 0.5-5.3 0-10 2.8-10 6 0 0.3-0.2 0.5-0.5 0.5-0.3 0-0.5-0.2-0.5-0.5 0-3.8 5-7 11-7 0.3 0 0.5 0.2 0.5 0.5zm15.5 6.5c0 6.6-7.2 12-16 12q-1.6 0-3.1-0.2c-0.7 0.8-3.6 3.7-6.7 4.2 0 0-0.2 0-0.3 0-0.5 0-0.9-0.4-0.9-0.9q0-0.2 0.1-0.4 0 0 0 0c0.6-1 1.9-2.9 1.9-4.7q0 0 0-0.1c-4.2-2.1-7-5.8-7-9.9 0-6.6 7.2-12 16-12 8.8 0 16 5.4 16 12zm-2 0c0-5.5-6.3-10-14-10-7.7 0-14 4.5-14 10 0 3.2 2.2 6.3 5.9 8.1 0.7 0.4 1.1 1.1 1.1 1.8q0 0.1 0 0.2c0 1-0.3 2-0.7 2.9 1.4-0.8 2.6-2 3.1-2.5 0.4-0.5 0.9-0.7 1.5-0.7q0.2 0 0.3 0 1.4 0.2 2.8 0.2c7.7 0 14-4.5 14-10z"/></svg>