<svg version="1.2" xmlns="http://www.w3.org/2000/svg" viewBox="-10 -12 50 50" width="52" height="52">
<style>.a{fill:#666d89}</style>
<style type="text/css">svg:hover{cursor:pointer;}</style>
<path fill-rule="evenodd" class="a" d="m29.2 16.2c-0.1 0.1-11.1 10.9-11.1 10.9-1.1 1.2-3.1 1.2-4.2 0 0 0-10-9.9-11.1-10.9-3.7-3.7-3.7-9.7 0-13.4 3.6-3.6 9.4-3.7 13.2-0.3 3.8-3.4 9.6-3.3 13.2 0.3 3.7 3.7 3.7 9.7 0 13.4zm-1.4-12c-2.9-2.8-7.5-2.9-10.4-0.2l-1.4 1.2-1.4-1.2c-2.9-2.7-7.5-2.6-10.4 0.2-2.9 2.9-2.9 7.7 0 10.6l11.1 10.9c0.4 0.4 1 0.4 1.4 0l11.1-10.9c2.9-2.9 2.9-7.7 0-10.6zm-18 1.3c0 0.3-0.3 0.5-0.5 0.5-1.8 0-3.3 1.5-3.3 3.3 0 0.2-0.2 0.5-0.5 0.5-0.3 0-0.5-0.3-0.5-0.5 0-2.4 1.9-4.3 4.2-4.3q0 0 0.1 0c0.2 0 0.5 0.2 0.5 0.5z"/></svg>