<?xml version="1.0" ?>
<svg class="icon" version="1.2" xmlns="http://www.w3.org/2000/svg" viewBox="-10 -10 50 50" width="52" height="52">
    <style>.a{fill:#666d89}</style>
    <style type="text/css">svg:hover{cursor:pointer;}</style>
    <path fill-rule="evenodd" class="a" d="m29.4 2.6c-1.6-1.7-3.8-2.6-6-2.6-1.8 0-3.4 0.7-4.6 1.9l-4.9 4.9q0 0 0 0 0 0-0.1 0l-10.3 10.5c-0.5 0.4-0.8 1-1 1.7l-2.3 8.5c0 0-0.2 0.7-0.2 1 0 1.9 1.6 3.5 3.5 3.5 0.4 0 1.1-0.2 1.2-0.2l8.4-2.2q1-0.3 1.7-1l15.3-15.4c2.8-2.8 2.5-7.5-0.7-10.6zm-13.4 21.2q-0.1-1.4-0.7-2.6l9.5-9.5c0.5 1.8 0.2 3.8-1 5q0 0-0.1 0l0.1 0.1-7.8 7.7q0-0.3 0-0.7zm-1.2-3.5c-0.4-0.7-0.8-1.2-1.3-1.8-0.6-0.6-1.3-1.1-2.1-1.5l9.6-9.5q1.1 0.5 2.1 1.4 0.8 0.9 1.2 1.8zm-4.3-3.7q-1.4-0.6-2.8-0.6l7.7-7.7c1.1-1.2 2.9-1.5 4.6-1.1zm-6.4 13.3c-0.1 0-0.4 0.1-0.6 0.1-0.9 0-1.5-0.6-1.5-1.5 0-0.1 0-0.4 0.1-0.5l1-3.8c1.2-0.1 2.4 0.4 3.4 1.3 0.9 1 1.4 2.3 1.4 3.4zm4.7-1.2c-0.1-1.3-0.6-2.7-1.7-3.8-1.1-1.1-2.4-1.7-3.8-1.7l1-3.6q0.1-0.4 0.4-0.7c2-1.5 5.1-1 7.2 1.1 2.3 2.3 2.7 5.6 0.9 7.6q-0.2 0.1-0.3 0.1zm19.8-16.8l-1.7 1.7c0-0.3 0-0.5 0-0.7-0.2-2-1.1-3.8-2.5-5.3-1.7-1.6-3.8-2.6-6-2.6l1.7-1.6c0.8-0.9 2-1.3 3.2-1.3 1.6 0 3.3 0.7 4.6 2 1.2 1.2 1.9 2.7 2 4.2 0.1 1.3-0.4 2.6-1.3 3.6z"/>
</svg>