<svg version="1.2" xmlns="http://www.w3.org/2000/svg" viewBox="-13 -10 50 50" width="52" height="52">
<style>.a{fill:#666d89}</style>
<style type="text/css">svg:hover{cursor:pointer;}</style>
<path fill-rule="evenodd" class="a" d="m23 3v26c0 1.7-1.3 3-3 3h-16c-1.7 0-3-1.3-3-3v-26c0-1.7 1.3-3 3-3h16c1.7 0 3 1.3 3 3zm-2 24h-18v2c0 0.6 0.4 1 1 1h16c0.6 0 1-0.4 1-1zm0-21h-18v20h18zm0-3c0-0.6-0.4-1-1-1h-16c-0.6 0-1 0.4-1 1v2h18zm-7.5 1h-3c-0.3 0-0.5-0.2-0.5-0.5 0-0.3 0.2-0.5 0.5-0.5h3c0.3 0 0.5 0.2 0.5 0.5 0 0.3-0.2 0.5-0.5 0.5zm-1 25h-1c-0.3 0-0.5-0.2-0.5-0.5 0-0.3 0.2-0.5 0.5-0.5h1c0.3 0 0.5 0.2 0.5 0.5 0 0.3-0.2 0.5-0.5 0.5z"/></svg>