<svg width="11px" height="11px" viewBox="5 1 15 20" xmlns="http://www.w3.org/2000/svg" class="icon glyph">
<style type="text/css">svg:hover{cursor:pointer;}</style>
 <g>
  <path transform="rotate(-90 12.059486389160158,11.753340721130371) " id="svg_1" fill="#f0d8d9" d="m21,14.777778l0,3.93a2,2 0 0 1 -2.29,2a18,18 0 0 1 -15.57,-15.64a2,2 0 0 1 1.99,-2.29l3.87,0a1,1 0 0 1 1,0.89a10.74,10.74 0 0 0 1,3.78a1,1 0 0 1 -0.42,1.26l-0.86,0.49a1,1 0 0 0 -0.33,1.46a14.08,14.08 0 0 0 3.69,3.69a1,1 0 0 0 1.46,-0.33l0.49,-0.86a1,1 0 0 1 1.3,-0.38a10.74,10.74 0 0 0 3.78,1a1,1 0 0 1 0.89,1z"/>
 </g>
</svg>