<svg version="1.2" xmlns="http://www.w3.org/2000/svg" viewBox="-10 -10 50 50" width="52" height="52"><style>.a{fill:#666d89}</style><path fill-rule="evenodd" class="a" d="m31.9 11.6c-0.3-0.8-1-1.4-1.9-1.6l-8.3-1.2-3.6-7.5c-0.4-0.8-1.2-1.3-2.1-1.3-0.9 0-1.7 0.5-2.1 1.3l-3.6 7.5-8.3 1.2c-0.9 0.2-1.6 0.8-1.9 1.6-0.3 0.8 0 1.6 0.6 2.2l6.1 6.1-1.5 8.5c-0.1 0.8 0.3 1.7 1 2.2 0.4 0.3 0.9 0.4 1.3 0.4q0.6 0 1.1-0.3l7.3-3.9 7.3 3.9q0.5 0.3 1.1 0.3c0.4 0 0.9-0.1 1.3-0.4 0.7-0.5 1.1-1.4 1-2.2l-1.5-8.5 6.1-6.1c0.6-0.6 0.9-1.4 0.6-2.2zm-8.3 6.8c-0.5 0.5-0.8 1.2-0.6 1.9l1.4 8.4-7.3-3.9q-0.5-0.2-1.1-0.2-0.6 0-1.1 0.2l-7.3 3.9 1.4-8.4c0.2-0.7-0.1-1.4-0.6-1.9l-6.1-6.1 8.3-1.3c0.8-0.1 1.5-0.6 1.8-1.2l3.6-7.5 3.6 7.5c0.3 0.6 1 1.1 1.8 1.2l8.3 1.3z"/></svg>